<?xml version="1.0" standalone="no"?>
<!DOCTYPE svg PUBLIC "-//W3C//DTD SVG 20010904//EN"
 "http://www.w3.org/TR/2001/REC-SVG-20010904/DTD/svg10.dtd">
<svg version="1.0" xmlns="http://www.w3.org/2000/svg"
 width="512.000000pt" height="512.000000pt" viewBox="0 0 512.000000 512.000000"
 preserveAspectRatio="xMidYMid meet">
<metadata>
Created by potrace 1.11, written by Peter Selinger 2001-2013
</metadata>
<g transform="translate(0.000000,512.000000) scale(0.100000,-0.100000)"
fill="#000000" stroke="none">
<path d="M4510 5100 c-30 -9 -82 -30 -115 -45 -33 -15 -94 -43 -135 -62 -41
-20 -93 -43 -115 -53 -42 -18 -108 -49 -294 -136 -62 -30 -115 -54 -117 -54
-3 0 -61 -27 -131 -60 -69 -33 -127 -60 -128 -60 -2 0 -47 -21 -102 -46 -54
-25 -147 -69 -208 -96 -131 -60 -202 -93 -354 -164 -62 -30 -114 -54 -116 -54
-2 0 -55 -25 -120 -55 -64 -30 -118 -55 -119 -55 -2 0 -50 -22 -107 -49 -154
-72 -216 -101 -409 -189 -96 -44 -209 -96 -250 -115 -124 -58 -381 -177 -385
-177 -1 0 -64 -29 -140 -65 -75 -36 -138 -65 -140 -65 -2 0 -50 -22 -107 -49
-56 -26 -184 -85 -283 -131 -372 -170 -441 -207 -493 -258 -98 -98 -143 -211
-137 -346 1 -44 6 -92 9 -105 31 -132 121 -253 234 -314 105 -57 97 -56 1081
-57 498 0 906 -1 907 -3 2 -2 5 -423 6 -937 l3 -935 23 -55 c80 -198 253 -311
467 -306 132 3 229 42 313 126 70 68 88 100 207 365 15 33 42 92 60 130 33 71
52 112 152 330 31 66 68 147 83 180 58 126 105 226 187 405 47 102 105 227
129 279 24 51 44 94 44 96 0 1 27 60 60 129 33 70 60 128 60 130 0 2 27 61 60
130 33 70 60 128 60 131 0 2 20 45 44 97 24 51 55 118 69 148 14 30 42 91 62
135 45 96 93 199 129 278 14 31 38 83 52 115 15 31 41 89 59 127 18 39 47 102
65 140 17 39 47 102 65 140 18 39 56 122 85 185 29 63 68 149 87 190 19 41 71
153 115 249 43 95 83 181 88 190 64 115 61 306 -7 435 -37 68 -141 170 -206
201 -112 55 -243 68 -347 35z"/>
</g>
</svg>
