<?xml version="1.0" encoding="utf-8"?>
<!-- Generator: Adobe Illustrator 21.1.0, SVG Export Plug-In . SVG Version: 6.00 Build 0)  -->
<svg version="1.1" id="Ebene_1" xmlns="http://www.w3.org/2000/svg" xmlns:xlink="http://www.w3.org/1999/xlink" x="0px" y="0px"
	 viewBox="0 0 1920 660" style="enable-background:new 0 0 1920 660;" xml:space="preserve">
<style type="text/css">
	.st0{fill:#FFF3EC;}
	.st1{fill:#1D1D1B;}
	.st2{font-family:'MyriadPro-Regular';}
	.st3{font-size:19.6923px;}
</style>
<polygon class="st0" points="542.1,0 959.9,329.9 960,330 589.7,0 "/>
<polygon class="st0" points="665.9,0 959.9,329.9 960,330 699.4,0 "/>
<polygon class="st0" points="457.5,0 960,330 959.9,329.9 517.4,0 "/>
<polygon class="st0" points="609.8,0 960,330 959.9,329.9 649.1,0 "/>
<polygon class="st0" points="714,0 960,330 959.9,329.9 743.3,0 "/>
<polygon class="st0" points="756.2,0 959.9,329.9 960,330 782.4,0 "/>
<polygon class="st0" points="891.6,0 960,330 960,330 911.9,0 "/>
<path class="st0" d="M960,330L960,330L960,330L960,330z M861,0l99,330L882,0H861z"/>
<polygon class="st0" points="921.2,0 960,330 960,330 941,0 "/>
<polygon class="st0" points="1008.1,0 960,330 960,330 1028.4,0 "/>
<polygon class="st0" points="1069.1,0 960,330 960,329.9 1091.4,0 "/>
<polygon class="st0" points="828.6,0 960,329.9 960,330 850.9,0 "/>
<polygon class="st0" points="950.2,0 960,330 969.8,0 "/>
<polygon class="st0" points="979,0 960,330 960,330 998.8,0 "/>
<polygon class="st0" points="1038,0 960,330 960,330 1059,0 "/>
<polygon class="st0" points="794,0 960,330 960,329.9 817.9,0 "/>
<polygon class="st0" points="1137.7,0 960,330 960.1,329.9 1163.9,0 "/>
<polygon class="st0" points="1220.6,0 960,330 960.1,329.9 1254.1,0 "/>
<polygon class="st0" points="1330.3,0 960,330 960.1,329.9 1377.9,0 "/>
<polygon class="st0" points="1494.2,0 960.1,330 960.2,329.9 1573,0 "/>
<polygon class="st0" points="1102.1,0 960,329.9 960,330 1126,0 "/>
<polygon class="st0" points="1176.7,0 960.1,329.9 960,330 1206,0 "/>
<polygon class="st0" points="1270.9,0 960.1,329.9 960,330 1310.2,0 "/>
<polygon class="st0" points="1402.6,0 960.1,329.9 960,330 1462.5,0 "/>
<polygon class="st0" points="1789,0 960.1,330 960.2,329.9 1920,12.6 1920,0 "/>
<polyline class="st0" points="960.2,330 1920,358.6 1920,301.4 960.1,330 "/>
<polygon class="st0" points="960.2,330.1 1789,660 1920,660 1920,647.4 960.1,330 "/>
<polygon class="st0" points="1616,0 960.2,329.9 960.1,330 1726.4,0 "/>
<polyline class="st0" points="960.1,330 1920,274.7 1920,217.1 960.2,330 "/>
<polyline class="st0" points="960.1,330 1920,618.1 1920,556.8 960.2,330 "/>
<polygon class="st0" points="1402.7,660 1462.5,660 960.1,330.1 960,330 "/>
<polyline class="st0" points="960.2,330 1920,190 1920,131.1 960.1,330 "/>
<polyline class="st0" points="960.2,330 1920,528.9 1920,470 960.1,330 "/>
<polygon class="st0" points="960.1,330.1 1494.2,660 1573,660 960.1,330 "/>
<polygon class="st0" points="960.1,330.1 1330.3,660 1377.9,660 960,330 "/>
<text transform="matrix(1 0 0 1 1107.041 461.799)" class="st1 st2 st3"> </text>
<polyline class="st0" points="960.1,330 1920,103.2 1920,41.9 960.2,329.9 "/>
<polyline class="st0" points="960.1,330 1920,442.9 1920,385.3 960.2,330 "/>
<polygon class="st0" points="1616,660 1726.4,660 960.2,330.1 960.1,330 "/>
<polygon class="st0" points="1270.9,660 1310.3,660 960.1,330.1 960,330 "/>
<polygon class="st0" points="960.1,330.1 1220.6,660 1254.1,660 960,330 "/>
<polygon class="st0" points="960,330.1 1137.7,660 1163.9,660 960,330 "/>
<polygon class="st0" points="960,330.1 1069.1,660 1091.4,660 960,330 "/>
<polygon class="st0" points="1176.7,660 1206,660 960.1,330.1 960,330 "/>
<polygon class="st0" points="1102.1,660 1126,660 960,330.1 960,330 "/>
<polygon class="st0" points="1038,660 1059,660 960,330.1 960,330 "/>
<polygon class="st0" points="891.6,660 911.9,660 960,330 960,330 "/>
<polygon class="st0" points="828.6,660 850.9,660 960,330.1 960,330 "/>
<polygon class="st0" points="756.2,660 782.4,660 960,330.1 960,330 "/>
<polygon class="st0" points="665.9,660 699.4,660 959.9,330.1 960,330 "/>
<path class="st0" d="M1008.1,660h20.3L960,330L1008.1,660z M960,330L960,330L960,330L960,330z"/>
<polygon class="st0" points="950.2,660 969.8,660 960,330 "/>
<path class="st0" d="M921.2,660H941l19-330L921.2,660z M960,330L960,330L960,330L960,330z"/>
<polygon class="st0" points="960,330.1 861,660 882,660 960,330 "/>
<polygon class="st0" points="960,330.1 794,660 817.9,660 960,330 "/>
<polygon class="st0" points="959.9,330.1 714,660 743.3,660 960,330 "/>
<polygon class="st0" points="959.9,330.1 609.7,660 649.1,660 960,330 "/>
<polygon class="st0" points="979,660 998.8,660 960,330 960,330 "/>
<polygon class="st0" points="542.1,660 589.7,660 959.9,330.1 960,330 "/>
<polygon class="st0" points="347,660 425.8,660 959.9,330.1 960,330 "/>
<polygon class="st0" points="0,647.4 0,660 131,660 959.8,330.1 959.9,330 "/>
<polygon class="st0" points="0,470 0,528.9 959.8,330 959.9,330 "/>
<polygon class="st0" points="0,358.6 959.8,330 959.9,330 0,301.4 "/>
<polygon class="st0" points="0,190 959.8,330 959.9,330 0,131.1 "/>
<polygon class="st0" points="959.9,330.1 457.5,660 517.4,660 960,330 "/>
<polygon class="st0" points="959.8,330.1 193.6,660 304,660 960,330 "/>
<polygon class="st0" points="959.8,330 0,556.8 0,618.1 959.9,330 "/>
<polygon class="st0" points="959.8,330 0,385.3 0,442.9 959.9,330 "/>
<polygon class="st0" points="0,274.7 959.9,330 959.8,330 0,217.1 "/>
<polygon class="st0" points="0,103.2 959.9,330 959.8,329.9 0,41.9 "/>
<polygon class="st0" points="0,0 0,12.6 959.8,329.9 959.9,330 131,0 "/>
<polygon class="st0" points="347,0 959.8,329.9 960,330 425.8,0 "/>
<polygon class="st0" points="193.6,0 960,330 959.8,329.9 304,0 "/>
</svg>
