<?xml version="1.0" encoding="utf-8"?>
<!-- Generator: Adobe Illustrator 21.1.0, SVG Export Plug-In . SVG Version: 6.00 Build 0)  -->
<svg version="1.1" id="Ebene_1" xmlns="http://www.w3.org/2000/svg" xmlns:xlink="http://www.w3.org/1999/xlink" x="0px" y="0px"
	 viewBox="0 0 109 106" style="enable-background:new 0 0 109 106;" xml:space="preserve">
<style type="text/css">
	.st0{fill:#D9D9D9;}
	.st1{clip-path:url(#SVGID_2_);fill:#374B71;}
	.st2{clip-path:url(#SVGID_2_);fill:#FF8E4A;}
	.st3{fill:#FFFFFF;}
	.st4{clip-path:url(#SVGID_4_);fill:none;stroke:#9C9B9B;stroke-width:5.016;}
	.st5{clip-path:url(#SVGID_4_);fill:#374B71;}
	.st6{clip-path:url(#SVGID_4_);fill:none;stroke:#FFFFFF;stroke-width:3.357;}
	.st7{clip-path:url(#SVGID_4_);fill:#FFFFFF;}
</style>
<rect x="19.3" y="43.6" class="st0" width="40.7" height="47.7"/>
<g>
	<defs>
		<rect id="SVGID_1_" x="13" y="13.5" width="83.5" height="81.2"/>
	</defs>
	<clipPath id="SVGID_2_">
		<use xlink:href="#SVGID_1_"  style="overflow:visible;"/>
	</clipPath>
	<path class="st1" d="M25.8,51.8V58c0,2.1-2,3.8-4.5,3.8c-2.5,0-4.5-1.7-4.5-3.8v-6.2H25.8z"/>
	<path class="st1" d="M62.4,51.8V58c0,2.1-2,3.8-4.5,3.8c-2.5,0-4.5-1.7-4.5-3.8v-6.2H62.4z"/>
	<path class="st2" d="M53.2,51.8V58c0,2.1-2,3.8-4.5,3.8c-2.5,0-4.5-1.7-4.5-3.8v-6.2H53.2z"/>
	<path class="st1" d="M44.1,51.8V58c0,2.1-2,3.8-4.5,3.8c-2.5,0-4.5-1.7-4.5-3.8v-6.2H44.1z"/>
	<path class="st2" d="M35,51.8V58c0,2.1-2,3.8-4.5,3.8c-2.5,0-4.5-1.7-4.5-3.8v-6.2H35z"/>
</g>
<rect x="37.3" y="73.1" class="st3" width="13.6" height="18.3"/>
<g>
	<defs>
		<rect id="SVGID_3_" x="13" y="13.5" width="83.5" height="81.2"/>
	</defs>
	<clipPath id="SVGID_4_">
		<use xlink:href="#SVGID_3_"  style="overflow:visible;"/>
	</clipPath>
	<line class="st4" x1="13" y1="92.2" x2="66.3" y2="92.2"/>
	<path class="st5" d="M94.8,38c0-12.6-11.3-22.8-24.5-22.8c-13.2,0-24.5,10.2-24.5,22.8c0,9.2,5.8,17.6,11.5,23.8
		c2.8,3.2,8.1,8.1,9.6,9.7c1.6,1.6,3.4,4,3.4,4c0,0,1.8-2.4,3.4-4c1.5-1.5,6.9-6.4,9.6-9.7C89.1,55.6,94.8,47.2,94.8,38"/>
	<path class="st6" d="M94.8,38c0-12.6-11.3-22.8-24.5-22.8c-13.2,0-24.5,10.2-24.5,22.8c0,9.2,5.8,17.6,11.5,23.8
		c2.8,3.2,8.1,8.1,9.6,9.7c1.6,1.6,3.4,4,3.4,4c0,0,1.8-2.4,3.4-4c1.5-1.5,6.9-6.4,9.6-9.7C89.1,55.6,94.8,47.2,94.8,38z"/>
	<path class="st7" d="M70.3,45.9c4.3,0,7.8-3.5,7.8-7.8c0-4.3-3.5-7.8-7.8-7.8c-4.3,0-7.8,3.5-7.8,7.8C62.5,42.4,66,45.9,70.3,45.9"
		/>
</g>
</svg>
