<?xml version="1.0" encoding="utf-8"?>
<!-- Generator: Adobe Illustrator 21.1.0, SVG Export Plug-In . SVG Version: 6.00 Build 0)  -->
<svg version="1.1" id="Ebene_1" xmlns="http://www.w3.org/2000/svg" xmlns:xlink="http://www.w3.org/1999/xlink" x="0px" y="0px"
	 viewBox="0 0 109 106" style="enable-background:new 0 0 109 106;" xml:space="preserve">
<style type="text/css">
	.st0{clip-path:url(#SVGID_2_);fill:#FF8E4A;}
	.st1{clip-path:url(#SVGID_2_);fill:#D9D9D9;}
	.st2{fill:#D9D9D9;}
	.st3{clip-path:url(#SVGID_4_);fill:#374B71;}
	.st4{clip-path:url(#SVGID_4_);fill:#FFFFFF;}
</style>
<g>
	<defs>
		<rect id="SVGID_1_" x="17" y="13.6" width="74.6" height="79.4"/>
	</defs>
	<clipPath id="SVGID_2_">
		<use xlink:href="#SVGID_1_"  style="overflow:visible;"/>
	</clipPath>
	<path class="st0" d="M28.8,60.9c0,0-3.6,0-4.5,3.5l-7,25.2c0,0-1,3.5,2.6,3.5h68.8c0,0,3.6,0,2.6-3.5l-7.1-25.2c0,0-1-3.5-4.6-3.5
		H69.5c0,0-3.6,0-5.9,2.8l-7,8.6c0,0-2.3,2.8-4.5,0l-6.8-8.5c0,0-2.2-2.8-5.8-2.8H28.8z"/>
	<path class="st1" d="M85.7,69.3l-1.9-6.6c-0.3-1.1-1.3-1.8-2.4-1.8H65.7c-2.9,3-6.7,6.5-7.9,7.8c-1.6,1.6-3.5,4.1-3.5,4.1
		c0,0-1.8-2.5-3.5-4.1c-1.3-1.3-5-4.8-7.9-7.8H27.2c-1.1,0-2.1,0.7-2.4,1.8l-2.3,7.9L73,79.8L85.7,69.3z"/>
	<path class="st1" d="M91.6,89.8l-4.8-16.9L62.7,93h26.4c0.8,0,1.5-0.4,2-1C91.6,91.4,91.8,90.6,91.6,89.8"/>
	<path class="st1" d="M29.3,75.4L21.6,74l-4.5,15.8c-0.2,0.8-0.1,1.6,0.4,2.2c0.5,0.6,1.2,1,2,1h9.8V75.4z"/>
</g>
<polygon class="st2" points="32.8,93 57.3,93 69.5,82.7 32.8,76 "/>
<g>
	<defs>
		<rect id="SVGID_3_" x="17" y="13.6" width="74.6" height="79.4"/>
	</defs>
	<clipPath id="SVGID_4_">
		<use xlink:href="#SVGID_3_"  style="overflow:visible;"/>
	</clipPath>
	<path class="st3" d="M74.8,32.7c0-10.5-9.5-19.1-20.5-19.1s-20.5,8.5-20.5,19.1c0,7.7,4.8,14.7,9.6,19.9c2.3,2.7,6.7,6.8,8,8.1
		c1.3,1.3,2.8,3.4,2.8,3.4c0,0,1.5-2,2.9-3.4c1.3-1.3,5.7-5.4,8-8.1C70,47.4,74.8,40.3,74.8,32.7"/>
	<path class="st4" d="M54.3,39.3c3.6,0,6.5-2.9,6.5-6.5c0-3.6-2.9-6.5-6.5-6.5c-3.6,0-6.5,2.9-6.5,6.5
		C47.8,36.3,50.7,39.3,54.3,39.3"/>
</g>
</svg>
