<?xml version="1.0" encoding="utf-8"?>
<!-- Generator: Adobe Illustrator 21.1.0, SVG Export Plug-In . SVG Version: 6.00 Build 0)  -->
<svg version="1.1" id="Ebene_1" xmlns="http://www.w3.org/2000/svg" xmlns:xlink="http://www.w3.org/1999/xlink" x="0px" y="0px"
	 viewBox="0 0 172.2 260" style="enable-background:new 0 0 172.2 260;" xml:space="preserve">
<style type="text/css">
	.st0{clip-path:url(#SVGID_2_);fill:#FFFFFF;}
	.st1{clip-path:url(#SVGID_2_);fill:#FF8E4A;}
	.st2{clip-path:url(#SVGID_2_);fill:#374B71;}
	.st3{clip-path:url(#SVGID_4_);fill:none;stroke:#1D1D1B;stroke-width:2.839;}
	.st4{clip-path:url(#SVGID_6_);fill:none;stroke:#1D1D1B;stroke-width:2.839;}
	.st5{clip-path:url(#SVGID_6_);fill:#FBCE8E;}
	.st6{clip-path:url(#SVGID_6_);fill:#FF8E4A;}
	.st7{clip-path:url(#SVGID_6_);fill:#FFFFFF;}
	.st8{clip-path:url(#SVGID_6_);fill:none;stroke:#1D1D1B;stroke-width:2.839;stroke-linecap:round;}
	.st9{clip-path:url(#SVGID_6_);fill:#374B71;}
	.st10{clip-path:url(#SVGID_6_);fill:none;stroke:#1D1D1B;stroke-width:2.356;}
</style>
<g>
	<defs>
		<rect id="SVGID_1_" width="172.2" height="260"/>
	</defs>
	<clipPath id="SVGID_2_">
		<use xlink:href="#SVGID_1_"  style="overflow:visible;"/>
	</clipPath>
	<path class="st0" d="M146.3,201.5h1.6v8.7l-7.6-12h-5.5v3.3h1.5v11.7h-1.5v3.3h6.9v-3.3h-1.5v-8.5l7.6,11.8h4v-15h1.5v-3.3h-7
		V201.5z M121.5,212.6c-0.6-0.3-1.1-0.7-1.5-1.2c-0.4-0.5-0.7-1.1-1-1.8c-0.2-0.7-0.4-1.4-0.4-2.2c0-0.8,0.1-1.5,0.4-2.2
		c0.2-0.7,0.6-1.3,1-1.8c0.4-0.5,0.9-0.9,1.5-1.2s1.2-0.5,1.9-0.5s1.3,0.2,1.9,0.5s1.1,0.7,1.5,1.2c0.4,0.5,0.8,1.1,1,1.8
		c0.2,0.7,0.3,1.4,0.3,2.2c0,0.8-0.1,1.5-0.3,2.2c-0.2,0.7-0.6,1.3-1,1.8c-0.4,0.5-0.9,0.9-1.5,1.2c-0.6,0.3-1.2,0.5-1.9,0.5
		C122.7,213,122.1,212.9,121.5,212.6 M125.8,216.5c0.8-0.2,1.5-0.5,2.1-1c0.7-0.4,1.3-0.9,1.8-1.5c0.5-0.6,1-1.2,1.4-1.9
		c0.4-0.7,0.7-1.5,0.9-2.3c0.2-0.8,0.3-1.6,0.3-2.5c0-0.9-0.1-1.7-0.3-2.5c-0.2-0.8-0.5-1.6-0.9-2.3c-0.4-0.7-0.8-1.3-1.4-1.9
		c-0.5-0.6-1.1-1.1-1.8-1.5c-0.7-0.4-1.4-0.7-2.1-1c-0.8-0.2-1.6-0.3-2.4-0.3c-0.8,0-1.6,0.1-2.4,0.3c-0.8,0.2-1.5,0.5-2.1,1
		c-0.7,0.4-1.3,0.9-1.8,1.5c-0.5,0.6-1,1.2-1.4,1.9c-0.4,0.7-0.7,1.5-0.9,2.3c-0.2,0.8-0.3,1.7-0.3,2.5c0,0.9,0.1,1.7,0.3,2.5
		c0.2,0.8,0.5,1.6,0.9,2.3c0.4,0.7,0.8,1.3,1.4,1.9c0.5,0.6,1.1,1.1,1.8,1.5c0.7,0.4,1.4,0.7,2.1,1c0.8,0.2,1.6,0.3,2.4,0.3
		C124.3,216.8,125,216.7,125.8,216.5 M105.4,201.5h1.9v11.7h-1.9v3.3h7.8v-3.3h-1.9v-11.7h1.9v-3.3h-7.8V201.5z M91.2,216.5h7.8
		v-3.3h-1.9v-11.8h2.5v2.4h4v-5.6H86.9v5.6h3.9v-2.4h2.2v11.8h-1.9V216.5z M78.9,201.5l1.9,6H77L78.9,201.5z M80.7,216.5h6.9v-3.3
		h-1.3l-4.9-15h-4.8l-5,15h-1.4v3.3h6.9v-3.3h-1.9l0.8-2.6h5.6l0.8,2.6h-1.8V216.5z M68.2,203.8v-4.1h-2.7c-0.8-0.7-1.6-1.2-2.2-1.5
		c-0.7-0.2-1.5-0.4-2.5-0.4c-1.2,0-2.4,0.2-3.5,0.7c-1.1,0.5-2,1.2-2.8,2c-0.8,0.9-1.4,1.9-1.9,3c-0.5,1.1-0.7,2.4-0.7,3.7
		c0,0.9,0.1,1.7,0.3,2.5c0.2,0.8,0.5,1.6,0.9,2.3c0.4,0.7,0.8,1.3,1.4,1.9c0.5,0.6,1.1,1.1,1.8,1.5c0.7,0.4,1.4,0.7,2.1,1
		c0.8,0.2,1.6,0.3,2.4,0.3c1,0,1.9-0.1,2.7-0.4c0.8-0.3,1.6-0.7,2.3-1.2c0.7-0.5,1.3-1.1,1.7-1.7c0.5-0.7,0.8-1.4,1.1-2.2l-3.9-1.1
		c-0.1,0.4-0.3,0.7-0.6,1c-0.3,0.3-0.6,0.6-0.9,0.9c-0.3,0.3-0.7,0.5-1.1,0.6c-0.4,0.2-0.9,0.2-1.4,0.2c-0.7,0-1.3-0.2-1.9-0.5
		c-0.6-0.3-1.1-0.7-1.5-1.2c-0.4-0.5-0.7-1.1-1-1.8c-0.2-0.7-0.4-1.4-0.4-2.2c0-0.8,0.1-1.5,0.4-2.2c0.2-0.7,0.6-1.3,1-1.8
		c0.4-0.5,0.9-0.9,1.5-1.2c0.6-0.3,1.2-0.5,1.9-0.5c0.5,0,0.9,0.1,1.3,0.2c0.4,0.1,0.8,0.3,1.2,0.6c0.4,0.3,0.8,0.7,1.2,1.4H68.2z
		 M39.3,212.6c-0.6-0.3-1.1-0.7-1.5-1.2c-0.4-0.5-0.7-1.1-1-1.8c-0.2-0.7-0.4-1.4-0.4-2.2c0-0.8,0.1-1.5,0.4-2.2
		c0.2-0.7,0.6-1.3,1-1.8c0.4-0.5,0.9-0.9,1.5-1.2c0.6-0.3,1.2-0.5,1.9-0.5c0.7,0,1.3,0.2,1.9,0.5c0.6,0.3,1.1,0.7,1.5,1.2
		c0.4,0.5,0.8,1.1,1,1.8c0.2,0.7,0.4,1.4,0.4,2.2c0,0.8-0.1,1.5-0.3,2.2c-0.2,0.7-0.6,1.3-1,1.8c-0.4,0.5-0.9,0.9-1.5,1.2
		c-0.6,0.3-1.2,0.5-1.9,0.5C40.5,213,39.9,212.9,39.3,212.6 M43.6,216.5c0.8-0.2,1.5-0.5,2.1-1c0.7-0.4,1.3-0.9,1.8-1.5
		c0.5-0.6,1-1.2,1.4-1.9c0.4-0.7,0.7-1.5,0.9-2.3c0.2-0.8,0.3-1.6,0.3-2.5c0-0.9-0.1-1.7-0.3-2.5c-0.2-0.8-0.5-1.6-0.9-2.3
		c-0.4-0.7-0.8-1.3-1.4-1.9c-0.5-0.6-1.1-1.1-1.8-1.5c-0.7-0.4-1.4-0.7-2.1-1c-0.8-0.2-1.6-0.3-2.4-0.3c-0.8,0-1.6,0.1-2.4,0.3
		c-0.8,0.2-1.5,0.5-2.1,1c-0.7,0.4-1.3,0.9-1.8,1.5c-0.5,0.6-1,1.2-1.4,1.9c-0.4,0.7-0.7,1.5-0.9,2.3c-0.2,0.8-0.3,1.7-0.3,2.5
		c0,0.9,0.1,1.7,0.3,2.5c0.2,0.8,0.5,1.6,0.9,2.3c0.4,0.7,0.8,1.3,1.4,1.9c0.5,0.6,1.1,1.1,1.8,1.5c0.7,0.4,1.4,0.7,2.1,1
		c0.8,0.2,1.6,0.3,2.4,0.3C42,216.8,42.8,216.7,43.6,216.5 M16.7,201.5h1.9v11.7h-1.9v3.3h14.6v-6.7h-3.9v2.5c0,0.1,0,0.2-0.1,0.3
		c0,0.1-0.1,0.2-0.2,0.3c-0.1,0.1-0.2,0.2-0.3,0.2c-0.1,0.1-0.2,0.1-0.3,0.1h-4v-11.7h1.9v-3.3h-7.8V201.5z"/>
	<path class="st0" d="M121.5,232h3v13.5c0,2.3,0.3,4.3,1,6.1c0.7,1.8,1.6,3.3,2.8,4.6c1.2,1.3,2.6,2.2,4.1,2.9c1.6,0.7,3.3,1,5.1,1
		c1.8,0,3.6-0.3,5.2-1c1.6-0.7,3-1.6,4.2-2.9c1.2-1.3,2.1-2.8,2.8-4.7c0.7-1.8,1-4,1-6.3V232h2.7v-6.1H140v6.1h3.6v14
		c0,1.4-0.1,2.5-0.4,3.4c-0.3,0.9-0.7,1.6-1.2,2.2c-0.5,0.5-1.1,0.9-1.8,1.1c-0.7,0.2-1.5,0.3-2.4,0.3c-0.8,0-1.6-0.1-2.3-0.4
		c-0.7-0.3-1.3-0.7-1.8-1.2c-0.5-0.6-0.9-1.3-1.2-2.2c-0.3-0.9-0.4-2-0.4-3.2v-14h3.1v-6.1h-13.5V232z M104.2,232
		c1.8,0,3.2,0.4,4.1,1.1c0.9,0.7,1.4,1.7,1.4,3c0,0.7-0.1,1.3-0.4,1.8c-0.3,0.5-0.6,0.9-1.1,1.3c-0.5,0.3-1.1,0.6-1.7,0.7
		c-0.7,0.2-1.4,0.2-2.3,0.2h-4.4V232H104.2z M88.9,232h3.5v21.5h-3.5v6.1h14v-6.1h-3.1v-7.3h2.9c0.9,0,1.7,0.1,2.3,0.3
		c0.7,0.2,1.2,0.5,1.7,1c0.5,0.4,0.8,1,1.1,1.7c0.3,0.7,0.5,1.5,0.6,2.5l1.3,8h9.8l0-6.6h-2.8l-1.1-4.4c-0.3-1.3-0.7-2.3-1.3-3.1
		c-0.6-0.8-1.2-1.4-2-1.8c0.9-0.4,1.7-0.9,2.3-1.4c0.7-0.5,1.3-1.1,1.7-1.8c0.5-0.7,0.8-1.4,1.1-2.3c0.2-0.9,0.4-1.9,0.4-3
		c0-1.2-0.2-2.4-0.7-3.6c-0.5-1.1-1.2-2.2-2.1-3c-0.9-0.9-2.1-1.6-3.4-2.1c-1.4-0.5-2.9-0.8-4.6-0.8H88.9V232z M52.8,232h3v13.5
		c0,2.3,0.3,4.3,1,6.1c0.7,1.8,1.6,3.3,2.8,4.6c1.2,1.3,2.6,2.2,4.1,2.9c1.6,0.7,3.3,1,5.1,1c1.8,0,3.6-0.3,5.2-1
		c1.6-0.7,3-1.6,4.2-2.9c1.2-1.3,2.1-2.8,2.8-4.7c0.7-1.8,1-4,1-6.3V232h2.7v-6.1H71.3v6.1h3.6v14c0,1.4-0.1,2.5-0.4,3.4
		c-0.3,0.9-0.7,1.6-1.2,2.2c-0.5,0.5-1.1,0.9-1.8,1.1c-0.7,0.2-1.5,0.3-2.4,0.3c-0.8,0-1.6-0.1-2.3-0.4c-0.7-0.3-1.3-0.7-1.8-1.2
		c-0.5-0.6-0.9-1.3-1.2-2.2c-0.3-0.9-0.4-2-0.4-3.2v-14h3.1v-6.1H52.8V232z M48.9,259.6v-18H33.3v6.1h6.4c-0.5,1.6-1.4,2.8-2.5,3.8
		c-1.2,0.9-2.5,1.4-4.1,1.4c-1.2,0-2.4-0.3-3.5-0.8s-2-1.3-2.8-2.2c-0.8-1-1.4-2.1-1.8-3.3c-0.4-1.2-0.6-2.5-0.6-3.8
		c0-1.4,0.2-2.7,0.7-4c0.4-1.3,1.1-2.4,1.8-3.4c0.8-1,1.7-1.7,2.8-2.3c1.1-0.6,2.2-0.8,3.5-0.8c1.3,0,2.2,0.2,2.9,0.5
		c0.7,0.3,1.4,0.7,2,1.2c0.6,0.5,1.2,1.2,1.9,2.3h6.9v-7.5h-5c-1.5-1.3-2.9-2.1-4.2-2.6c-1.3-0.5-2.8-0.7-4.6-0.7
		c-1.5,0-3,0.2-4.4,0.6c-1.4,0.4-2.7,1-3.9,1.8c-1.2,0.8-2.3,1.7-3.3,2.7c-1,1.1-1.8,2.2-2.5,3.5c-0.7,1.3-1.2,2.7-1.6,4.2
		c-0.4,1.5-0.6,3-0.6,4.6c0,2.6,0.5,5,1.4,7.1c0.9,2.2,2.2,4.1,3.8,5.8c0.7,0.7,1.4,1.3,2.2,1.8c0.8,0.5,1.7,0.9,2.5,1.3
		c0.9,0.4,1.7,0.6,2.7,0.8c0.9,0.2,1.8,0.3,2.8,0.3c1.9,0,3.3-0.2,4.4-0.7c1.1-0.5,2.1-1.1,3-1.8c0.9-0.8,1.8-1.9,2.7-3.6v5.8H48.9z
		"/>
	<path class="st1" d="M86.1,172.2c47.5,0,86.1-38.5,86.1-86.1S133.6,0,86.1,0S0,38.5,0,86.1S38.5,172.2,86.1,172.2"/>
	<path class="st2" d="M135.8,77.3c0-25.5-23-46.3-49.7-46.3c-26.7,0-49.7,20.7-49.7,46.3c0,23.2,18.3,44.1,31.6,56.8l0.6-3.2
		c5.3,3.6,11.2,5.7,17.5,5.7c6.3,0,12.2-2.1,17.5-5.7l0.6,3.2C117.4,121.5,135.8,100.5,135.8,77.3"/>
</g>
<g>
	<defs>
		<path id="SVGID_3_" d="M36.4,77.3c0,23.2,18.3,44.1,31.6,56.8l0.6-3.2c5.3,3.6,11.2,5.7,17.5,5.7s12.2-2.1,17.5-5.7l0.6,3.2
			c13.3-12.6,31.6-33.6,31.6-56.8c0-25.5-23-46.3-49.7-46.3S36.4,51.8,36.4,77.3"/>
	</defs>
	<clipPath id="SVGID_4_">
		<use xlink:href="#SVGID_3_"  style="overflow:visible;"/>
	</clipPath>
	<ellipse transform="matrix(0.9511 -0.309 0.309 0.9511 -23.7106 37.0371)" class="st3" cx="105.1" cy="93.4" rx="51.9" ry="35.5"/>
</g>
<g>
	<defs>
		<rect id="SVGID_5_" width="172.2" height="260"/>
	</defs>
	<clipPath id="SVGID_6_">
		<use xlink:href="#SVGID_5_"  style="overflow:visible;"/>
	</clipPath>
	<path class="st4" d="M135.8,77.3c0-25.5-23-46.3-49.7-46.3c-26.7,0-49.7,20.7-49.7,46.3c0,23.2,18.3,44.1,31.6,56.8l0.6-3.2
		c5.3,3.6,11.2,5.7,17.5,5.7c6.3,0,12.2-2.1,17.5-5.7l0.6,3.2C117.4,121.5,135.8,100.5,135.8,77.3z"/>
	<path class="st5" d="M55.7,109.4c3.7,11.5,15.5,19,30.4,20.9c14.9-1.9,26.6-9.3,30.4-20.9c5.4-16.7-7.9-36.4-30.4-46.7
		C63.6,73,50.3,92.7,55.7,109.4"/>
	<path class="st4" d="M55.7,109.4c3.7,11.5,15.5,19,30.4,20.9c14.9-1.9,26.6-9.3,30.4-20.9c5.4-16.7-7.9-36.4-30.4-46.7
		C63.6,73,50.3,92.7,55.7,109.4z"/>
	<path class="st6" d="M86.1,73.7c3.8,0,6.9-3.1,6.9-6.9c0-3.8-3.1-6.9-6.9-6.9c-3.8,0-6.9,3.1-6.9,6.9
		C79.2,70.6,82.3,73.7,86.1,73.7"/>
	<circle class="st4" cx="86.1" cy="66.8" r="6.9"/>
	<path class="st4" d="M94.6,92c0,0,1.7,1.7,3.6,1.7c2.2,0,3.6-1.8,3.6-1.8"/>
	<path class="st4" d="M70.2,92c0,0,1.7,1.7,3.6,1.7c2.2,0,3.6-1.8,3.6-1.8"/>
	<path class="st7" d="M86,153.4c0,0,3.7-4.9,7-8.2c3.3-3.3,14.9-14,20.2-20.5c5.3-6.5,3-18.7-8.4-21.9c-11.4-3.3-18.8,5.3-18.8,5.3
		c0,0-7.4-8.6-18.8-5.3c-11.4,3.3-13.7,15.4-8.4,21.9s17,17.3,20.2,20.5C82.4,148.5,86,153.4,86,153.4"/>
	<path class="st4" d="M86,153.4c0,0,3.7-4.9,7-8.2c3.3-3.3,14.9-14,20.2-20.5c5.3-6.5,3-18.7-8.4-21.9c-11.4-3.3-18.8,5.3-18.8,5.3
		c0,0-7.4-8.6-18.8-5.3c-11.4,3.3-13.7,15.4-8.4,21.9s17,17.3,20.2,20.5C82.4,148.5,86,153.4,86,153.4z"/>
	<path class="st8" d="M80,116c0,0,2.8,2.8,6,2.8c3.7,0,6-3,6-3"/>
	<path class="st9" d="M86.1,181.5c13.2,0,23.9-4.3,23.9-9.6c0-5.3-10.7-9.5-23.9-9.5s-23.9,4.3-23.9,9.5
		C62.2,177.2,72.9,181.5,86.1,181.5"/>
	<ellipse class="st10" cx="86.1" cy="172" rx="23.9" ry="9.6"/>
</g>
</svg>
