<?xml version="1.0" encoding="utf-8"?>
<!-- Generator: Adobe Illustrator 21.1.0, SVG Export Plug-In . SVG Version: 6.00 Build 0)  -->
<svg version="1.1" id="Ebene_1" xmlns="http://www.w3.org/2000/svg" xmlns:xlink="http://www.w3.org/1999/xlink" x="0px" y="0px"
	 viewBox="0 0 145.7 220" style="enable-background:new 0 0 145.7 220;" xml:space="preserve">
<style type="text/css">
	.st0{clip-path:url(#SVGID_2_);fill:#374B71;}
	.st1{clip-path:url(#SVGID_2_);fill:#FF8E4A;}
	.st2{clip-path:url(#SVGID_4_);fill:none;stroke:#1D1D1B;stroke-width:2.402;}
	.st3{clip-path:url(#SVGID_6_);fill:none;stroke:#1D1D1B;stroke-width:2.402;}
	.st4{clip-path:url(#SVGID_6_);fill:#FBCE8E;}
	.st5{clip-path:url(#SVGID_6_);fill:#FF8E4A;}
	.st6{clip-path:url(#SVGID_6_);fill:#FFFFFF;}
	.st7{clip-path:url(#SVGID_6_);fill:none;stroke:#1D1D1B;stroke-width:2.402;stroke-linecap:round;}
	.st8{clip-path:url(#SVGID_6_);fill:#374B71;}
	.st9{clip-path:url(#SVGID_6_);fill:none;stroke:#1D1D1B;stroke-width:1.994;}
</style>
<g>
	<defs>
		<rect id="SVGID_1_" width="145.7" height="220"/>
	</defs>
	<clipPath id="SVGID_2_">
		<use xlink:href="#SVGID_1_"  style="overflow:visible;"/>
	</clipPath>
	<path class="st0" d="M123.8,170.5h1.3v7.3l-6.4-10.2H114v2.8h1.3v9.9H114v2.8h5.9v-2.8h-1.3v-7.2l6.5,10h3.4v-12.7h1.3v-2.8h-5.9
		V170.5z M102.8,179.9c-0.5-0.3-0.9-0.6-1.3-1c-0.4-0.4-0.6-1-0.8-1.5c-0.2-0.6-0.3-1.2-0.3-1.9c0-0.7,0.1-1.3,0.3-1.9
		c0.2-0.6,0.5-1.1,0.8-1.5c0.4-0.4,0.8-0.8,1.3-1c0.5-0.3,1-0.4,1.6-0.4c0.6,0,1.1,0.1,1.6,0.4c0.5,0.3,0.9,0.6,1.3,1
		c0.4,0.4,0.6,1,0.8,1.5c0.2,0.6,0.3,1.2,0.3,1.9c0,0.7-0.1,1.3-0.3,1.9c-0.2,0.6-0.5,1.1-0.8,1.5c-0.4,0.4-0.8,0.8-1.3,1
		c-0.5,0.3-1,0.4-1.6,0.4C103.8,180.3,103.3,180.1,102.8,179.9 M106.5,183.2c0.6-0.2,1.2-0.5,1.8-0.8c0.6-0.3,1.1-0.8,1.5-1.3
		c0.5-0.5,0.8-1,1.2-1.6c0.3-0.6,0.6-1.2,0.8-1.9c0.2-0.7,0.3-1.4,0.3-2.1c0-0.7-0.1-1.5-0.3-2.1c-0.2-0.7-0.4-1.3-0.8-1.9
		c-0.3-0.6-0.7-1.1-1.2-1.6c-0.5-0.5-1-0.9-1.5-1.3c-0.6-0.3-1.2-0.6-1.8-0.8c-0.6-0.2-1.3-0.3-2-0.3c-0.7,0-1.4,0.1-2,0.3
		c-0.6,0.2-1.2,0.5-1.8,0.8c-0.6,0.3-1.1,0.8-1.5,1.3c-0.5,0.5-0.8,1-1.2,1.6c-0.3,0.6-0.6,1.2-0.7,1.9c-0.2,0.7-0.3,1.4-0.3,2.1
		s0.1,1.5,0.3,2.1c0.2,0.7,0.4,1.3,0.7,1.9c0.3,0.6,0.7,1.1,1.2,1.6c0.5,0.5,1,0.9,1.5,1.3c0.6,0.3,1.2,0.6,1.8,0.8
		c0.6,0.2,1.3,0.3,2,0.3C105.1,183.5,105.8,183.4,106.5,183.2 M89.1,170.5h1.6v9.9h-1.6v2.8h6.6v-2.8h-1.6v-9.9h1.6v-2.8h-6.6V170.5
		z M77.2,183.2h6.6v-2.8h-1.6v-10h2.1v2h3.4v-4.7H73.6v4.7h3.3v-2h1.9v10h-1.6V183.2z M66.7,170.5l1.6,5h-3.1L66.7,170.5z
		 M68.3,183.2h5.9v-2.8H73l-4.1-12.7h-4.1l-4.2,12.7h-1.2v2.8h5.9v-2.8h-1.6l0.7-2.2h4.8l0.7,2.2h-1.5V183.2z M57.7,172.4V169h-2.3
		c-0.7-0.6-1.3-1-1.9-1.2c-0.6-0.2-1.3-0.3-2.1-0.3c-1,0-2,0.2-2.9,0.6c-0.9,0.4-1.7,1-2.4,1.7c-0.7,0.7-1.2,1.6-1.6,2.5
		c-0.4,1-0.6,2-0.6,3.1c0,0.7,0.1,1.5,0.3,2.1c0.2,0.7,0.4,1.3,0.7,1.9c0.3,0.6,0.7,1.1,1.2,1.6c0.5,0.5,1,0.9,1.5,1.3
		c0.6,0.3,1.2,0.6,1.8,0.8c0.6,0.2,1.3,0.3,2,0.3c0.8,0,1.6-0.1,2.3-0.4c0.7-0.2,1.4-0.6,1.9-1c0.6-0.4,1.1-0.9,1.5-1.5
		c0.4-0.6,0.7-1.2,0.9-1.9l-3.3-0.9c-0.1,0.3-0.3,0.6-0.5,0.9s-0.5,0.5-0.8,0.8s-0.6,0.4-1,0.5s-0.7,0.2-1.1,0.2
		c-0.6,0-1.1-0.1-1.6-0.4c-0.5-0.3-0.9-0.6-1.3-1c-0.4-0.4-0.6-0.9-0.8-1.5c-0.2-0.6-0.3-1.2-0.3-1.9c0-0.7,0.1-1.3,0.3-1.9
		c0.2-0.6,0.5-1.1,0.8-1.5c0.4-0.4,0.8-0.8,1.3-1c0.5-0.3,1-0.4,1.6-0.4c0.4,0,0.8,0,1.1,0.1c0.4,0.1,0.7,0.3,1,0.5
		c0.3,0.2,0.7,0.6,1,1.2H57.7z M33.3,179.9c-0.5-0.3-0.9-0.6-1.3-1c-0.4-0.4-0.6-1-0.8-1.5c-0.2-0.6-0.3-1.2-0.3-1.9
		c0-0.7,0.1-1.3,0.3-1.9c0.2-0.6,0.5-1.1,0.8-1.5c0.4-0.4,0.8-0.8,1.3-1c0.5-0.3,1-0.4,1.6-0.4c0.6,0,1.1,0.1,1.6,0.4
		c0.5,0.3,0.9,0.6,1.3,1c0.4,0.4,0.6,1,0.8,1.5c0.2,0.6,0.3,1.2,0.3,1.9c0,0.7-0.1,1.3-0.3,1.9c-0.2,0.6-0.5,1.1-0.8,1.5
		c-0.4,0.4-0.8,0.8-1.3,1c-0.5,0.3-1,0.4-1.6,0.4C34.3,180.3,33.7,180.1,33.3,179.9 M36.9,183.2c0.6-0.2,1.2-0.5,1.8-0.8
		c0.6-0.3,1.1-0.8,1.5-1.3s0.8-1,1.2-1.6c0.3-0.6,0.6-1.2,0.8-1.9c0.2-0.7,0.3-1.4,0.3-2.1c0-0.7-0.1-1.5-0.3-2.1
		c-0.2-0.7-0.4-1.3-0.8-1.9c-0.3-0.6-0.7-1.1-1.2-1.6c-0.5-0.5-1-0.9-1.5-1.3c-0.6-0.3-1.2-0.6-1.8-0.8c-0.6-0.2-1.3-0.3-2-0.3
		c-0.7,0-1.4,0.1-2,0.3c-0.6,0.2-1.2,0.5-1.8,0.8c-0.6,0.3-1.1,0.8-1.5,1.3c-0.5,0.5-0.8,1-1.2,1.6c-0.3,0.6-0.6,1.2-0.7,1.9
		c-0.2,0.7-0.3,1.4-0.3,2.1s0.1,1.5,0.3,2.1c0.2,0.7,0.4,1.3,0.7,1.9c0.3,0.6,0.7,1.1,1.2,1.6c0.5,0.5,1,0.9,1.5,1.3
		c0.6,0.3,1.2,0.6,1.8,0.8c0.6,0.2,1.3,0.3,2,0.3C35.6,183.5,36.2,183.4,36.9,183.2 M14.1,170.5h1.6v9.9h-1.6v2.8h12.4v-5.7h-3.3
		v2.1c0,0.1,0,0.2-0.1,0.3c0,0.1-0.1,0.2-0.2,0.3c-0.1,0.1-0.1,0.1-0.2,0.2c-0.1,0.1-0.2,0.1-0.3,0.1h-3.4v-9.9h1.6v-2.8h-6.6V170.5
		z"/>
	<path class="st0" d="M102.8,196.3h2.6v11.4c0,1.9,0.3,3.6,0.9,5.2c0.6,1.5,1.4,2.8,2.4,3.9c1,1.1,2.2,1.9,3.5,2.4
		c1.3,0.6,2.8,0.8,4.3,0.8c1.6,0,3-0.3,4.4-0.8c1.4-0.6,2.5-1.4,3.6-2.5c1-1.1,1.8-2.4,2.4-4c0.6-1.6,0.9-3.3,0.9-5.4v-11.1h2.3
		v-5.2h-11.4v5.2h3v11.8c0,1.2-0.1,2.1-0.3,2.9c-0.2,0.8-0.6,1.4-1,1.8c-0.4,0.5-1,0.8-1.6,1c-0.6,0.2-1.3,0.3-2,0.3
		c-0.7,0-1.4-0.1-2-0.3c-0.6-0.2-1.1-0.6-1.6-1c-0.4-0.5-0.8-1.1-1-1.8c-0.2-0.8-0.4-1.7-0.4-2.7v-11.8h2.6v-5.2h-11.4V196.3z
		 M88.1,196.3c1.5,0,2.7,0.3,3.5,0.9c0.8,0.6,1.2,1.5,1.2,2.6c0,0.6-0.1,1.1-0.3,1.5c-0.2,0.4-0.5,0.8-0.9,1.1
		c-0.4,0.3-0.9,0.5-1.5,0.6c-0.6,0.1-1.2,0.2-1.9,0.2h-3.7v-6.9H88.1z M75.2,196.3h3v18.2h-3v5.2H87v-5.2h-2.6v-6.2h2.4
		c0.8,0,1.4,0.1,2,0.3c0.6,0.2,1,0.4,1.4,0.8c0.4,0.4,0.7,0.8,0.9,1.4c0.2,0.6,0.4,1.3,0.5,2.1l1.1,6.8h8.3l0-5.6h-2.4l-1-3.7
		c-0.3-1.1-0.6-1.9-1.1-2.6c-0.5-0.7-1.1-1.2-1.7-1.5c0.7-0.4,1.4-0.7,2-1.2c0.6-0.4,1.1-0.9,1.5-1.5c0.4-0.6,0.7-1.2,0.9-1.9
		c0.2-0.7,0.3-1.6,0.3-2.5c0-1.1-0.2-2.1-0.6-3c-0.4-1-1-1.8-1.8-2.6c-0.8-0.7-1.8-1.3-2.9-1.8c-1.2-0.4-2.5-0.7-3.9-0.7H75.2V196.3
		z M44.7,196.3h2.6v11.4c0,1.9,0.3,3.6,0.9,5.2c0.6,1.5,1.4,2.8,2.4,3.9c1,1.1,2.2,1.9,3.5,2.4c1.3,0.6,2.8,0.8,4.3,0.8
		c1.6,0,3-0.3,4.4-0.8c1.4-0.6,2.5-1.4,3.6-2.5c1-1.1,1.8-2.4,2.4-4c0.6-1.6,0.9-3.3,0.9-5.4v-11.1h2.3v-5.2H60.3v5.2h3v11.8
		c0,1.2-0.1,2.1-0.3,2.9c-0.2,0.8-0.6,1.4-1,1.8c-0.4,0.5-1,0.8-1.6,1c-0.6,0.2-1.3,0.3-2,0.3c-0.7,0-1.4-0.1-2-0.3
		c-0.6-0.2-1.1-0.6-1.6-1c-0.4-0.5-0.8-1.1-1-1.8c-0.2-0.8-0.4-1.7-0.4-2.7v-11.8h2.6v-5.2H44.7V196.3z M41.3,219.6v-15.2H28.1v5.2
		h5.4c-0.4,1.3-1.2,2.4-2.1,3.2c-1,0.8-2.2,1.2-3.5,1.2c-1,0-2-0.2-2.9-0.7c-0.9-0.4-1.7-1.1-2.4-1.9c-0.7-0.8-1.2-1.7-1.5-2.8
		c-0.3-1-0.5-2.1-0.5-3.3c0-1.2,0.2-2.3,0.6-3.4c0.4-1.1,0.9-2.1,1.6-2.9c0.7-0.8,1.4-1.5,2.3-1.9c0.9-0.5,1.9-0.7,2.9-0.7
		c1.1,0,1.9,0.1,2.5,0.4c0.6,0.3,1.1,0.6,1.7,1c0.5,0.4,1,1,1.6,1.9h5.8v-6.4h-4.2c-1.3-1.1-2.4-1.8-3.5-2.2
		c-1.1-0.4-2.4-0.6-3.9-0.6c-1.3,0-2.5,0.2-3.7,0.5c-1.2,0.4-2.3,0.8-3.3,1.5c-1,0.6-2,1.4-2.8,2.3s-1.5,1.9-2.1,3
		c-0.6,1.1-1,2.3-1.4,3.5c-0.3,1.3-0.5,2.6-0.5,3.9c0,2.2,0.4,4.2,1.2,6c0.8,1.9,1.9,3.5,3.2,4.9c0.6,0.6,1.2,1.1,1.9,1.5
		c0.7,0.4,1.4,0.8,2.1,1.1c0.7,0.3,1.5,0.5,2.3,0.7c0.8,0.2,1.6,0.3,2.3,0.3c1.6,0,2.8-0.2,3.8-0.6c0.9-0.4,1.8-0.9,2.5-1.5
		c0.7-0.6,1.5-1.6,2.3-3v4.9H41.3z"/>
	<path class="st1" d="M72.8,145.7c40.2,0,72.8-32.6,72.8-72.8S113.1,0,72.8,0S0,32.6,0,72.8S32.6,145.7,72.8,145.7"/>
	<path class="st0" d="M114.9,65.4c0-21.6-19.5-39.1-42-39.1c-22.6,0-42,17.5-42,39.1c0,19.6,15.5,37.4,26.8,48l0.5-2.7
		c4.4,3.1,9.5,4.8,14.8,4.8c5.3,0,10.3-1.8,14.8-4.8l0.5,2.7C99.4,102.8,114.9,85.1,114.9,65.4"/>
</g>
<g>
	<defs>
		<path id="SVGID_3_" d="M30.8,65.4c0,19.6,15.5,37.4,26.8,48l0.5-2.7c4.4,3.1,9.5,4.8,14.8,4.8c5.3,0,10.3-1.8,14.8-4.8l0.5,2.7
			c11.3-10.7,26.8-28.4,26.8-48c0-21.6-19.5-39.1-42-39.1C50.3,26.3,30.8,43.8,30.8,65.4"/>
	</defs>
	<clipPath id="SVGID_4_">
		<use xlink:href="#SVGID_3_"  style="overflow:visible;"/>
	</clipPath>
	<ellipse transform="matrix(0.9511 -0.309 0.309 0.9511 -20.0634 31.3405)" class="st2" cx="88.9" cy="79" rx="43.9" ry="30.1"/>
</g>
<g>
	<defs>
		<rect id="SVGID_5_" width="145.7" height="220"/>
	</defs>
	<clipPath id="SVGID_6_">
		<use xlink:href="#SVGID_5_"  style="overflow:visible;"/>
	</clipPath>
	<path class="st3" d="M114.9,65.4c0-21.6-19.5-39.1-42-39.1c-22.6,0-42,17.5-42,39.1c0,19.6,15.5,37.4,26.8,48l0.5-2.7
		c4.4,3.1,9.5,4.8,14.8,4.8c5.3,0,10.3-1.8,14.8-4.8l0.5,2.7C99.4,102.8,114.9,85.1,114.9,65.4z"/>
	<path class="st4" d="M47.1,92.6c3.2,9.8,13.1,16,25.7,17.7c12.6-1.6,22.5-7.9,25.7-17.7c4.6-14.2-6.7-30.8-25.7-39.5
		C53.8,61.8,42.5,78.4,47.1,92.6"/>
	<path class="st3" d="M47.1,92.6c3.2,9.8,13.1,16,25.7,17.7c12.6-1.6,22.5-7.9,25.7-17.7c4.6-14.2-6.7-30.8-25.7-39.5
		C53.8,61.8,42.5,78.4,47.1,92.6z"/>
	<path class="st5" d="M72.8,62.3c3.2,0,5.8-2.6,5.8-5.8c0-3.2-2.6-5.8-5.8-5.8c-3.2,0-5.8,2.6-5.8,5.8C67,59.7,69.6,62.3,72.8,62.3"
		/>
	<circle class="st3" cx="72.8" cy="56.5" r="5.8"/>
	<path class="st3" d="M80,77.8c0,0,1.4,1.4,3.1,1.4c1.9,0,3.1-1.5,3.1-1.5"/>
	<path class="st3" d="M59.4,77.8c0,0,1.4,1.4,3.1,1.4c1.9,0,3.1-1.5,3.1-1.5"/>
	<path class="st6" d="M72.8,129.8c0,0,3.2-4.1,5.9-6.9c2.8-2.8,12.6-11.8,17.1-17.4c4.5-5.5,2.6-15.8-7.1-18.6s-15.9,4.5-15.9,4.5
		c0,0-6.2-7.3-15.9-4.5c-9.7,2.8-11.6,13-7.1,18.6s14.4,14.6,17.1,17.4C69.7,125.6,72.8,129.8,72.8,129.8"/>
	<path class="st3" d="M72.8,129.8c0,0,3.2-4.1,5.9-6.9c2.8-2.8,12.6-11.8,17.1-17.4c4.5-5.5,2.6-15.8-7.1-18.6s-15.9,4.5-15.9,4.5
		c0,0-6.2-7.3-15.9-4.5c-9.7,2.8-11.6,13-7.1,18.6s14.4,14.6,17.1,17.4C69.7,125.6,72.8,129.8,72.8,129.8z"/>
	<path class="st7" d="M67.7,98.1c0,0,2.4,2.4,5.1,2.4c3.1,0,5.1-2.6,5.1-2.6"/>
	<path class="st8" d="M72.8,153.6c11.1,0,20.2-3.6,20.2-8.1s-9-8.1-20.2-8.1s-20.2,3.6-20.2,8.1S61.7,153.6,72.8,153.6"/>
	<ellipse class="st9" cx="72.8" cy="145.5" rx="20.2" ry="8.1"/>
</g>
</svg>
